<svg width="512" height="512" viewBox="0 0 512 512" fill="none"
  xmlns="http://www.w3.org/2000/svg">
  <rect width="512" height="512" rx="52" fill="white"/>
  <path d="M411.348 132.521C412.417 124.163 408.17 111.255 404.359 103.741C398.298 91.7897 389.575 80.4939 375.261 73.3712C372.584 72.3055 371.781 70.7069 369.907 70.4405C369.464 70.4405 368.774 69.708 368.066 69.0527C367.11 68.1683 366.124 67.2434 364.821 67.2434V67.2434V67.2434C364.14 67.2434 363.411 66.7031 362.748 66.5458C362.212 66.4186 361.55 66.3107 360.982 66.213C360.15 66.0698 359.305 65.7954 358.479 65.6187C346.784 63.1171 322.863 63.685 310.103 66.1586C307.108 66.7392 304.138 67.4229 301.126 67.9046C285.354 70.4267 265.476 75.7621 251.587 81.0975C211.432 95.218 158.697 127.988 157.358 175.412C157.358 183.303 157.601 186.003 158.086 189.607C158.66 193.872 159.975 198.289 161.796 202.188C161.94 202.497 162.075 202.769 162.196 202.989C162.347 203.262 162.589 203.491 162.664 203.795C162.745 204.128 162.69 204.516 162.727 204.816C162.77 205.16 163.225 205.221 163.422 205.506V205.506C163.535 205.67 163.541 205.882 163.597 206.074C164.379 208.773 166.153 213 167.638 215.292C167.91 215.712 168.209 215.97 168.384 216.439V216.439C168.803 217.562 169.737 218.554 170.41 219.546C171.106 220.573 171.552 221.123 173.688 223.634C187.072 240.686 201.795 249.211 219.196 258.536C228.833 263.865 246.768 272.657 257.744 279.051C268.987 284.646 284.513 295.303 291.205 305.16C291.272 305.294 290.904 305.427 290.322 305.539C287.333 306.117 283.146 305.089 280.23 305.96V305.96C264.971 309.956 249.445 315.018 235.525 321.945C219.196 329.671 203.402 338.996 188.678 349.12C188.523 349.244 188.372 349.355 188.225 349.456C184.765 351.817 181.01 353.443 177.321 355.428C176.212 356.025 175.067 356.724 173.955 357.646C171.814 359.511 170.743 358.978 169.137 360.843C164.456 366.237 159.322 368.021 155.821 372.216C155.219 372.937 154.783 373.955 154.171 374.669V374.669C153.845 375.05 153.822 375.498 153.49 375.874C153.02 376.409 152.244 376.828 151.469 376.828C150.758 376.828 149.662 377.787 148.518 379.034C145.309 382.53 142.784 386.646 140.327 390.706C137.88 394.751 135.016 399.423 132.998 402.938C127.109 415.46 125.503 425.584 133.266 438.106C145.044 453.292 183.592 447.697 200.457 442.902C205.511 441.465 210.998 439.812 215.75 437.944C216.8 437.531 217.733 437.074 218.861 437.029V437.029C220.667 436.956 222.413 436.068 224.055 435.31C229.058 433.002 234.567 431.142 240.076 427.715C242.217 426.383 245.162 425.584 245.697 423.719C245.965 422.653 246.233 422.387 248.107 421.854C251.587 420.522 254.531 418.923 256.137 417.591C270.325 408.799 284.781 394.412 293.882 379.759C310.226 353.681 313.497 336.611 301.743 309.391C301.362 308.508 303.129 306.117 302.181 305.96V305.96C300.575 305.693 299.504 304.894 297.898 301.963C296.827 299.832 296.024 299.299 295.756 298.766C275.679 266.529 225.085 254.007 192.426 227.897C186.114 223.348 178.385 215.627 173.702 208.174C171.675 204.948 169.811 201.59 168.12 198.176C167.416 196.754 166.797 195.29 166.46 194.061C158.964 161.291 186.805 133.583 211.432 117.331C242.485 96.8165 278.891 84.8274 316.369 80.5646C332.698 78.4332 354.381 79.2325 369.372 84.2946C376.064 86.1595 379.544 86.6924 385.969 91.488C387.281 92.5032 389.623 94.7815 391.615 96.9907C394.193 99.8495 396.246 103.183 397.92 106.649C400.792 112.595 402.577 119.598 401.629 125.706C401.248 128.162 400.196 130.188 398.05 131.441V131.441C395.053 133.191 391.26 134.49 387.793 134.309C386.779 134.256 385.768 134.109 384.898 133.85C383.024 133.317 380.883 132.784 379.544 131.985C379.009 131.718 378.741 131.718 378.474 131.985C376.064 134.649 388.646 137.846 389.717 137.846C391.591 138.112 391.591 138.112 390.52 138.645C388.111 139.977 391.323 139.711 391.858 140.244C392.394 140.777 399.889 140.777 400.96 140.244C401.598 139.926 404.044 139.892 405.972 139.579C407.812 139.279 409.433 137.642 410.155 135.924V135.924C410.47 135.174 410.901 134.606 411.108 133.82C411.206 133.45 411.285 133.012 411.348 132.521ZM180.648 362.175C181.317 361.604 181.679 361.339 181.953 361.173C183.21 360.415 184.266 358.978 185.734 358.978V358.978C186.537 358.978 187.875 356.847 188.678 356.847C189.214 356.847 189.482 356.58 189.482 356.314C189.482 356.047 190.285 355.248 191.355 354.715C193.394 353.362 195.433 351.819 197.472 350.73C198.199 350.342 198.558 350.268 199.167 349.713V349.713C199.677 349.248 200.416 348.318 200.969 347.904C201.999 347.13 202.477 347.328 203.134 346.456C205.811 343.525 223.479 333.934 225.888 332.602C227.208 332.018 231.664 329.194 235.73 327.023C239.306 325.114 240.464 325.677 236.863 327.54V327.54C233.383 329.138 224.014 336.066 222.14 336.066C221.873 336.066 221.873 336.066 221.873 336.332V336.332C221.873 337.486 220.055 337.727 219.089 338.359C212.81 342.465 206.135 345.981 199.922 350.186C189.749 356.58 186.002 359.777 176.632 366.704V366.704C174.887 368.094 174.77 367.511 176.415 366.003C177.418 365.084 178.791 363.838 180.648 362.175ZM170.882 370.547C171.123 370.435 171.365 370.387 171.482 370.148V370.148C171.538 370.032 171.567 369.837 171.63 369.725C171.912 369.229 172.367 369.189 172.611 369.364C173.15 369.753 171.474 370.667 170.914 371.024V371.024C170.304 371.413 169.895 371.169 170.497 370.768C170.629 370.68 170.761 370.604 170.882 370.547ZM147.989 389.084C148.524 388.818 148.257 389.617 147.989 389.617C147.454 389.617 147.454 389.35 147.989 389.084ZM134.604 427.183C134.667 427.245 134.773 427.438 134.886 427.687C135.503 429.054 133.541 426.125 134.604 427.183V427.183ZM135.508 431.813C135.572 432.005 135.271 432.031 135.159 431.863C134.984 431.602 134.872 431.098 135.159 431.246C135.34 431.34 135.444 431.619 135.508 431.813V431.813ZM137.013 434.376C136.328 434.376 136.41 434.158 136.699 434.071C137.074 433.957 137.406 434.376 137.013 434.376V434.376ZM137.865 431.57C137.713 431.755 137.337 431.778 137.321 431.539C137.305 431.286 137.442 430.88 137.592 430.849C137.868 430.792 138.045 431.352 137.865 431.57V431.57ZM151.201 441.303C152.332 441.303 152.388 442.122 151.26 442.043C149.736 441.937 148.087 441.121 151.201 441.303V441.303ZM161.909 444.234V444.234C161.712 444.234 161.686 444.108 161.883 444.117C162.186 444.132 162.405 444.234 161.909 444.234ZM171.278 444.234C170.707 444.234 170.822 444.158 171.093 444.128C171.567 444.075 171.755 444.234 171.278 444.234V444.234ZM250.784 417.059V417.059C249.934 417.34 250.376 416.063 251.266 415.966C251.742 415.914 251.821 416.542 250.784 417.059ZM252.657 415.726C252.652 415.728 252.647 415.73 252.641 415.732C251.816 415.995 253.433 415.341 252.657 415.726V415.726ZM256.693 412.591C256.713 412.726 256.649 412.854 256.564 412.961V412.961C255.922 413.762 255.466 412.704 256.467 412.477C256.591 412.449 256.676 412.477 256.693 412.591ZM258.814 410.664C259.411 410.664 258.08 411.048 258.583 410.727C258.644 410.689 258.721 410.664 258.814 410.664V410.664ZM262.294 408.799V408.799C261.909 409.566 261.016 409.523 261.572 408.871C262.109 408.24 262.91 407.727 262.294 408.799ZM276.641 395.627C277.218 395.993 276.482 396.428 276.482 395.745V395.745C276.482 395.589 276.551 395.57 276.641 395.627ZM277.821 395.345C277.821 395.601 277.585 395.978 277.526 395.729C277.493 395.587 277.519 395.352 277.577 395.171C277.654 394.927 277.821 395.089 277.821 395.345V395.345ZM283.117 390.08C282.884 391.011 281.567 391.217 281.033 392.015V392.015V392.015C280.707 392.663 280.213 392.13 280.656 391.555C281.718 390.177 282.893 388.829 283.143 389.494C283.172 389.572 283.176 389.659 283.17 389.743C283.162 389.858 283.144 389.971 283.117 390.08ZM283.175 381.091C281.671 383.015 279.65 385.282 277.804 387.48C276.923 388.528 276.147 389.717 275.156 390.663C275.125 390.692 275.093 390.722 275.061 390.752C271.892 393.751 273.453 395.114 275.411 391.215V391.215C275.947 390.416 277.285 390.15 277.285 390.683C277.285 390.894 275.429 392.786 274.262 394.089C273.954 394.433 273.329 395.419 273.002 395.745V395.745V395.745C271.653 397.087 270.448 398.625 269.048 399.914C264.848 403.781 257.479 409.597 253.46 412.263C228.833 430.113 195.906 441.57 165.121 442.902C164.693 442.902 161.75 442.826 158.976 442.674C155.559 442.487 155.415 441.842 158.836 441.837C159.835 441.836 161.027 441.836 162.444 441.836C173.152 442.102 174.491 440.77 181.718 439.705C185.511 438.95 191.931 437.482 194.662 436.423C194.956 436.309 195.416 436.241 195.732 436.241V436.241C196.083 436.241 195.197 436.168 194.846 436.177C193.714 436.207 190.927 436.802 185.466 438.106C174.223 440.77 155.484 442.635 145.58 438.639C143.974 437.84 143.974 437.307 145.58 437.84C149.327 439.438 168.601 439.971 176.097 438.372C176.457 438.301 176.875 438.268 177.315 438.247C178.972 438.17 182.552 437.163 184.095 436.553V436.553C184.911 436.231 184.391 435.943 183.514 435.946C171.713 435.984 154.219 442.353 142.903 435.442V435.442C140.877 434.098 140.536 433.392 142.928 433.827C143.247 433.885 143.558 433.955 143.846 434.035C144.482 434.212 145.275 434.505 145.918 434.654V434.654C147.038 434.913 147.681 435.284 148.824 435.417C148.963 435.433 149.129 435.442 149.327 435.442C152.943 435.956 152.572 435.478 153.984 434.965C154.09 434.927 154.204 434.9 154.31 434.941V434.941C154.685 435.085 154.636 435.659 155.032 435.725C155.706 435.836 157.126 435.869 159.232 435.708C161.064 435.708 166.532 435.833 170.574 435.741C173.369 435.677 176.138 435.163 178.932 435.056C180.035 435.014 181.262 434.984 182.501 434.963C187.661 434.873 192.802 434.167 197.707 432.565C208.537 429.029 218.327 425.266 228.833 420.256C229.437 420.024 229.992 419.769 230.513 419.501C233.212 418.112 233.616 418.631 231.242 420.522V420.522C230.974 420.788 229.368 421.854 227.762 422.653C220.34 426.846 225.394 425.054 229.408 423.108C231.592 422.049 233.647 420.732 235.771 419.557C237.094 418.826 238.521 418.037 239.793 417.333C241.4 416.445 243.006 415.5 243.903 413.897C244.077 413.585 244.26 413.302 244.472 413.101C244.845 412.746 245.833 412.751 245.615 413.217V413.217C245.189 414.125 244.929 414.77 245.86 414.397C247.212 413.855 249.28 412.64 250.144 411.741C250.572 411.295 250.165 410.131 250.784 410.131V410.131C251.319 410.131 254.264 408 253.728 407.201V407.201C253.42 406.588 253.748 406.981 254.417 407.136C254.566 407.171 254.797 407.193 255.145 407.199C255.271 407.201 255.397 407.213 255.523 407.227C256.727 407.354 257.302 406.682 258.042 405.87C258.269 405.621 258.169 405.211 257.85 405.105V405.105C257.78 405.081 257.703 405.079 257.63 405.082C256.797 405.123 258.101 403.659 259.196 402.69C259.818 402.14 260.487 400.948 261.212 400.544V400.544C261.415 400.43 261.622 400.535 261.81 400.397C262.072 400.202 262.379 399.838 262.562 399.475C263.365 398.142 264.436 398.409 265.239 397.077C265.507 396.544 265.774 396.277 266.042 396.277C266.31 396.277 269.79 393.08 279.962 383.489C281.836 381.624 284.781 379.226 283.175 381.091ZM238.47 415.194C239.273 414.927 238.47 415.726 238.202 415.726C237.666 415.726 237.666 415.46 238.47 415.194ZM239.721 414.652C239.433 414.595 239.737 414.241 240.022 414.312C240.251 414.369 240.379 414.505 239.873 414.644C239.831 414.655 239.764 414.66 239.721 414.652V414.652ZM248.642 410.664C248.91 410.398 249.445 410.131 249.713 410.131C251.051 410.131 247.303 411.996 248.642 410.664ZM284.781 387.485C285.775 386.495 283.652 388.668 284.619 387.651C284.67 387.597 284.724 387.542 284.781 387.485V387.485ZM287.384 385.024C287.66 385.361 287.057 385.887 286.621 385.887V385.887C286.185 385.887 286.773 385.105 287.195 384.995C287.282 384.972 287.349 384.981 287.384 385.024ZM292.473 378.178C292.178 378.705 291.795 379.573 291.418 380.045V380.045C290.425 381.291 291.61 378.745 292.501 377.424C292.516 377.403 292.53 377.382 292.544 377.361C293.476 375.738 293.394 376.537 292.473 378.178ZM290.603 368.003C290.7 367.378 291.23 367.224 291.133 367.849C291.123 367.912 291.111 367.976 291.098 368.039C290.967 368.657 290.506 368.628 290.603 368.003V368.003ZM294.15 374.94C294.15 375.13 294.026 375.417 293.979 375.232C293.952 375.126 293.943 374.956 293.954 374.798C293.975 374.472 294.15 374.614 294.15 374.94V374.94ZM298.701 316.883C303.252 324.876 302.181 341.394 298.701 349.653C296.559 354.449 293.615 360.31 290.938 365.106C286.387 373.098 282.907 375.496 277.018 382.423C257.208 402.938 235.793 415.46 209.023 425.318C191.623 431.978 166.46 437.307 149.327 433.044C148.051 432.726 145.346 431.746 143.03 430.78C140.569 429.753 138.308 428.258 136.589 426.219C136.082 425.618 135.649 425.006 135.322 424.37C133.778 421.362 135.366 417.623 136.869 414.595V414.595C137.923 412.472 138.95 410.436 140.169 408.403C142.602 404.345 145.563 399.646 148.524 396.277C156.287 388.018 172.884 371.5 183.592 364.04C197.78 353.117 216.251 341.66 229.903 334.201C237.399 330.471 243.288 327.007 251.854 322.744C256.131 320.992 261.827 317.827 264.941 316.568C265.313 316.417 265.82 316.354 266.149 316.123V316.123C266.589 315.812 266.656 315.254 267.052 314.887C267.81 314.183 268.844 314.556 270.593 313.686C271.931 313.153 273.805 312.62 274.608 312.354C278.088 311.288 277.018 311.022 283.442 309.69V309.69C284.592 309.308 284.576 308.525 283.389 308.764C282.377 308.967 280.686 309.345 277.821 309.956C274.956 310.526 272.909 310.961 271.777 311.356C271.133 311.581 270.683 311.888 270.047 312.134V312.134C265.006 314.081 264.454 313.16 269.576 311.44C271.573 310.769 273.408 310.145 274.948 309.591C275.261 309.479 275.554 309.337 275.865 309.22C276.833 308.853 278.736 308.404 280.942 307.975C288.665 306.475 295.589 309.657 298.701 316.883V316.883ZM291.754 297.735C292.125 298.222 292.066 298.705 291.605 298.303C291.098 297.86 290.235 297.001 288.796 295.569V295.569C287.27 293.616 287.748 293.136 289.413 294.972C290.381 296.039 291.228 297.045 291.754 297.735ZM272.112 280.212C271.555 279.93 272.021 279.512 272.533 279.869C272.572 279.896 272.608 279.924 272.642 279.951C272.921 280.183 272.436 280.376 272.112 280.212V280.212Z" fill="black"/>
</svg>
